<?xml version="1.0"?>
<svg xmlns="http://www.w3.org/2000/svg" xmlns:xlink="http://www.w3.org/1999/xlink" version="1.1" id="Capa_1" x="0px" y="0px" viewBox="0 0 512.001 512.001" style="enable-background:new 0 0 512.001 512.001;" xml:space="preserve" width="512px" height="512px"><g><g>
	<g>
		<path d="M511.501,25.218c-1.462-3.749-5.687-5.604-9.436-4.141L395.701,62.558l-3.385-8.68c-2.275-5.832-8.872-8.728-14.702-6.452    l-18.148,7.078c-2.911-7.05-10.963-10.521-18.1-7.739l-37.748,14.721c-4.574-5.914-12.663-8.398-19.973-5.548l-40.347,15.735    c-3.749,1.462-5.603,5.686-4.141,9.436c1.462,3.748,5.685,5.604,9.436,4.141l40.347-15.734c1.403-0.548,2.99,0.149,3.538,1.552    l25.762,66.06c0.027,0.08,0.054,0.16,0.083,0.24c0.007,0.02,0.017,0.038,0.024,0.058c0.294,0.865,0.08,1.601-0.082,1.971    c-0.17,0.387-0.592,1.09-1.509,1.447l-10.927,4.261c-18.45,7.195-32.101,23.771-35.626,43.258    c-2.629,14.539-12.814,26.906-26.58,32.275l-96.102,37.478c-2.347,0.915-4.517,2.122-6.478,3.566    c-0.654,0.481-1.284,0.989-1.89,1.521c-0.606,0.532-1.188,1.088-1.744,1.667c-0.556,0.579-1.087,1.179-1.592,1.801    c-0.252,0.311-0.498,0.626-0.736,0.947c-4.536,6.09-6.622,13.925-5.287,21.792l10.465,61.667    c2.008,11.834,8.364,22.414,17.895,29.789c6.593,5.101,10.992,12.438,12.387,20.657l3.642,21.458    c1.293,7.619-3.854,14.869-11.473,16.161l-57.954,9.835c-3.693,0.628-7.404-0.222-10.457-2.389    c-3.053-2.166-5.079-5.393-5.705-9.082l-3.942-23.248c-0.673-3.967-4.427-6.637-8.402-5.966c-3.967,0.673-6.638,4.434-5.966,8.402    l3.942,23.249c1.277,7.528,5.41,14.108,11.637,18.528c4.889,3.471,10.61,5.283,16.486,5.283c1.608,0,3.227-0.136,4.844-0.41    l2.319-0.393l5.52,20.533c1.285,4.776,5.536,7.941,10.311,7.941c0.629,0,1.267-0.055,1.908-0.168l17.703-3.127    c5.512-0.974,9.302-5.913,8.816-11.49l-1.823-20.891l13.201-2.24c7.528-1.277,14.108-5.41,18.528-11.637s6.151-13.802,4.873-21.33    l-3.642-21.458c-2.008-11.835-8.342-22.398-17.836-29.744c-6.631-5.131-11.051-12.483-12.446-20.702l-0.196-1.155l25.166-6.991    c4.351-1.209,7.972-4.04,10.194-7.972c2.222-3.932,2.78-8.494,1.572-12.845l-7.131-25.672c-0.345-1.241,0.384-2.531,1.625-2.875    l14.183-3.94c8.982-2.496,14.26-11.834,11.765-20.816l-4.432-15.954l41.546-16.202c18.45-7.195,32.102-23.771,35.626-43.258    c2.63-14.539,12.815-26.907,26.58-32.275l10.926-4.261c4.306-1.679,7.701-4.935,9.559-9.168c0.794-1.809,1.246-3.706,1.396-5.619    l38.693-15.089c3.5-1.365,6.26-4.011,7.769-7.451c1.472-3.355,1.574-7.07,0.313-10.498l18.148-7.077    c2.825-1.102,5.053-3.238,6.271-6.015c1.219-2.776,1.283-5.862,0.182-8.687l-3.385-8.681l106.365-41.48    C511.109,33.192,512.963,28.968,511.501,25.218z M128.189,476.291l-4.246-15.791l13.588-2.305l1.413,16.197L128.189,476.291z     M196.137,273.145l-14.183,3.94c-8.983,2.495-14.261,11.834-11.766,20.817l7.132,25.672c0.225,0.811-0.039,1.459-0.217,1.774    c-0.178,0.315-0.597,0.876-1.408,1.101l-23.717,6.589l-7.818-46.068c-1.098-6.469,2.542-12.894,8.654-15.278l40.91-15.954    l4.036,14.533C198.107,271.511,197.378,272.801,196.137,273.145z M329.319,125.429l-19.743-50.626l36.612-14.278l19.743,50.626    L329.319,125.429z M374.498,93.013l-9.725-24.938l15.136-5.903l9.726,24.939L374.498,93.013z" data-original="#000000" class="active-path" data-old_color="#000000" fill="#F4841A"/>
	</g>
</g><g>
	<g>
		<path d="M210.369,92.335c-1.462-3.748-5.686-5.602-9.436-4.141l-181.28,70.695c-7.675,2.993-13.725,8.795-17.036,16.339    c-3.311,7.544-3.486,15.924-0.492,23.6l7.267,18.635c3.54,9.078,11.269,16.017,20.674,18.564    c6.104,1.652,10.731,6.749,11.788,12.984l20.873,123.112c0.603,3.555,3.686,6.07,7.175,6.07c0.404,0,0.814-0.034,1.227-0.103    c3.967-0.675,6.638-4.437,5.966-8.404L56.222,246.573c-2.004-11.819-10.776-21.481-22.347-24.613    c-4.961-1.343-9.038-5.004-10.905-9.792l-7.267-18.635c-1.579-4.049-1.486-8.47,0.26-12.449c1.746-3.979,4.937-7.04,8.986-8.618    l181.279-70.695C209.977,100.309,211.831,96.085,210.369,92.335z" data-original="#000000" class="active-path" data-old_color="#000000" fill="#F4841A"/>
	</g>
</g><g>
	<g>
		<path d="M181.38,180.847L166.581,142.9c-1.099-2.817-3.228-5.038-5.997-6.253c-2.768-1.214-5.844-1.279-8.661-0.181l-71.568,27.91    c-2.817,1.098-5.037,3.228-6.252,5.997c-1.215,2.768-1.279,5.845-0.18,8.661l14.799,37.949c1.098,2.817,3.228,5.037,5.997,6.252    c1.457,0.639,2.999,0.96,4.545,0.96c1.389,0,2.782-0.259,4.116-0.78l71.569-27.91c2.816-1.099,5.036-3.229,6.251-5.997    C182.415,186.74,182.479,183.663,181.38,180.847z M101.116,208.656l-12.434-31.885l65.504-25.545l12.435,31.885L101.116,208.656z" data-original="#000000" class="active-path" data-old_color="#000000" fill="#F4841A"/>
	</g>
</g><g>
	<g>
		<path d="M246.59,107.37c-1.463-3.75-5.687-5.604-9.436-4.141l-40.521,15.802c-3.749,1.462-5.603,5.686-4.141,9.436    c1.123,2.879,3.875,4.641,6.79,4.641c0.88,0,1.776-0.161,2.646-0.5l40.521-15.802C246.198,115.344,248.052,111.12,246.59,107.37z" data-original="#000000" class="active-path" data-old_color="#000000" fill="#F4841A"/>
	</g>
</g><g>
	<g>
		<path d="M255.454,130.1c-1.462-3.749-5.687-5.603-9.436-4.141l-40.521,15.802c-3.749,1.462-5.603,5.686-4.141,9.436    c1.123,2.879,3.875,4.641,6.79,4.641c0.88,0,1.776-0.161,2.646-0.5l40.521-15.802C255.062,138.074,256.916,133.85,255.454,130.1z" data-original="#000000" class="active-path" data-old_color="#000000" fill="#F4841A"/>
	</g>
</g><g>
	<g>
		<path d="M264.319,152.831c-1.462-3.749-5.688-5.604-9.436-4.141l-40.521,15.802c-3.749,1.463-5.603,5.687-4.141,9.436    c1.123,2.879,3.875,4.641,6.79,4.641c0.88,0,1.776-0.161,2.646-0.5l40.521-15.802    C263.927,160.805,265.781,156.581,264.319,152.831z" data-original="#000000" class="active-path" data-old_color="#000000" fill="#F4841A"/>
	</g>
</g></g> </svg>
