<?xml version="1.0"?>
<svg xmlns="http://www.w3.org/2000/svg" id="Layer_3" enable-background="new 0 0 64 64" height="512px" viewBox="0 0 64 64" width="512px"><g><path d="m5 5h22v2h-22z" data-original="#000000" class="active-path" data-old_color="#000000" fill="#F4841A"/><path d="m5 9h22v2h-22z" data-original="#000000" class="active-path" data-old_color="#000000" fill="#F4841A"/><path d="m5 13h32v2h-32z" data-original="#000000" class="active-path" data-old_color="#000000" fill="#F4841A"/><path d="m63 46c0-8.349-6.054-15.296-14-16.719v-19.281c0-.277-.112-.527-.294-.708l-7.998-7.998c-.181-.182-.431-.294-.708-.294h-38c-.553 0-1 .448-1 1v60c0 .553.447 1 1 1h45v-.051c8.908-.522 16-7.913 16-16.949zm-22-41.586 4.586 4.586h-4.586zm-38 56.586v-58h36v7c0 .552.447 1 1 1h7v18.051c-.333-.02-.662-.051-1-.051s-.667.031-1 .051v-3.051-6c0-.552-.447-1-1-1h-38c-.553 0-1 .448-1 1v6 32c0 .553.447 1 1 1h29.068c.908.765 1.894 1.436 2.949 2zm40-36h-36v-4h36zm-24 8v-6h12v6zm-2-6v6h-10v-6zm-10 16h10v6h-10zm0-2v-6h10v6zm0 10h10v6h-10zm12 0h10.753c.688 2.232 1.83 4.263 3.309 6h-14.062zm10.281-2h-10.281v-6h10.281c-.174.976-.281 1.975-.281 3s.107 2.024.281 3zm.472-8h-10.753v-6h14.062c-1.479 1.737-2.621 3.768-3.309 6zm5.315-8h-2.068v-6h10v2.281c-2.985.535-5.703 1.841-7.932 3.719zm10.932 28c-8.271 0-15-6.729-15-15s6.729-15 15-15 15 6.729 15 15-6.729 15-15 15z" data-original="#000000" class="active-path" data-old_color="#000000" fill="#F4841A"/><path d="m46 33c-7.168 0-13 5.832-13 13s5.832 13 13 13 13-5.832 13-13-5.832-13-13-13zm10.949 14c-.207 2.283-1.111 4.366-2.501 6.034l-1.741-1.741-1.414 1.414 1.741 1.741c-1.667 1.391-3.751 2.294-6.034 2.501v-1.949h-2v1.949c-2.283-.207-4.366-1.111-6.034-2.501l1.741-1.741-1.414-1.414-1.741 1.741c-1.391-1.667-2.294-3.751-2.501-6.034h1.949v-2h-1.949c.207-2.283 1.111-4.366 2.501-6.034l1.741 1.741 1.414-1.414-1.741-1.741c1.667-1.391 3.751-2.294 6.034-2.501v1.949h2v-1.949c2.283.207 4.366 1.111 6.034 2.501l-1.741 1.741 1.414 1.414 1.741-1.741c1.391 1.667 2.294 3.751 2.501 6.034h-1.949v2z" data-original="#000000" class="active-path" data-old_color="#000000" fill="#F4841A"/><path d="m47 39h-2v7c0 .266.105.52.293.707l4 4 1.414-1.414-3.707-3.707z" data-original="#000000" class="active-path" data-old_color="#000000" fill="#F4841A"/></g> </svg>
