<?xml version="1.0" encoding="UTF-8"?>
<!DOCTYPE svg PUBLIC "-//W3C//DTD SVG 1.1//EN" "http://www.w3.org/Graphics/SVG/1.1/DTD/svg11.dtd">
<!-- Creator: CorelDRAW -->
<svg xmlns="http://www.w3.org/2000/svg" xml:space="preserve" width="5906px" height="3543px" style="shape-rendering:geometricPrecision; text-rendering:geometricPrecision; image-rendering:optimizeQuality; fill-rule:evenodd; clip-rule:evenodd"
viewBox="0 0 5906 3543.6"
 xmlns:xlink="http://www.w3.org/1999/xlink">
 <defs>
  <style type="text/css">
   <![CDATA[
    .fil3 {fill:none}
    .fil1 {fill:#085461}
    .fil4 {fill:#72716E}
    .fil0 {fill:#3C3735;fill-rule:nonzero}
    .fil2 {fill:white;fill-opacity:0.200000}
   ]]>
  </style>
    <clipPath id="id0">
     <path d="M5122.39 1869.09l-643.481 -91.4024c-7.51361,-0.219703 -21.2722,-0.654385 -20.5163,30.6474l0 987.53c0.4335,4.95277 2.99789,6.39029 7.31281,4.94096l660.863 -570.244c2.06474,-1.44343 2.96481,-3.30382 2.31397,-5.71701l0 -349.229c-0.510278,-3.7255 -2.8774,-5.70992 -6.49188,-6.52613zm5.25988 -851.905l-653.162 -507.933c-10.1418,-5.02364 -14.8772,-0.878813 -16.095,9.22872l0 933.995c-0.877632,34.9493 5.10042,44.7084 37.0531,47.6035l629.556 -37.9094c2.7522,-0.08859 3.94166,-1.47178 3.88024,-3.88851l0 -438.4c0.0626036,-0.811484 -0.471299,-2.20058 -1.23199,-2.69668z"/>
    </clipPath>
    <clipPath id="id1">
     <path d="M3358.78 1750.04l1021.96 20.9935c34.7604,-1.46587 33.7398,26.1896 33.5343,33.7209l1.16112 991.752c-0.517366,6.38911 -3.98537,7.44983 -8.96413,5.78906l-1051.81 -564.944c-3.66054,-2.01631 -5.2398,-5.57645 -5.31304,-10.2587l0 -466.562c-0.141744,-5.51266 2.30098,-9.44015 9.43306,-10.4902zm7.40612 -737.168l1035.14 -509.194c7.80419,-1.51075 12.516,1.22963 14.113,8.25304l0 952.691c-0.0519728,25.8576 -13.6937,39.8147 -43.2296,39.2938l-1016.31 37.7228c-4.53463,-0.513822 -6.67732,-3.32153 -6.55566,-8.29793l0 -495.659c-0.0673284,-12.3837 5.65677,-20.573 16.8392,-24.8099z"/>
    </clipPath>
 </defs>
 <g id="Слой_x0020_1">
  <metadata id="CorelCorpID_0Corel-Layer"/>
  <g id="_106546176">
   <path id="_106546296" class="fil0" d="M1467.96 1256.59c0,-105.742 -80.3417,-162.453 -181.949,-174.268l0 -50.2128 -78.5687 0 0 50.2128c-101.016,11.8155 -181.949,68.5261 -181.949,174.268 0,105.153 80.9323,161.273 181.949,172.497l0 50.8034 78.5687 0 0 -50.8034c101.607,-11.2238 181.949,-67.3438 181.949,-172.497zm-362.124 0c0,-62.0272 44.3044,-88.0195 101.607,-95.6996l0 189.037c-57.3024,-6.49778 -101.607,-31.3089 -101.607,-93.3372zm180.176 93.3372l0 -189.037c57.893,7.68016 101.607,33.6725 101.607,95.6996 0,62.0284 -43.7138,86.8395 -101.607,93.3372zm337.313 -176.04c-70.8885,0 -112.832,46.668 -118.148,83.8853l65.572 14.1779c4.72598,-21.8581 23.0393,-33.0819 47.2598,-33.6725 27.7641,-1.1812 46.0774,16.5403 41.942,33.6725 -3.5436,15.9497 -23.6287,15.9497 -71.4791,26.5829 -60.2554,12.9967 -102.789,34.8537 -102.789,96.8808 2.36358,43.1244 33.0819,72.0709 88.6113,72.0709 48.441,0 76.7969,-20.6757 87.4301,-31.3089l0 26.5829 77.9769 0 0 -177.813c0,-82.7029 -54.3482,-111.059 -116.375,-111.059zm38.3984 172.497c-2.36358,31.3089 -24.2205,55.5294 -54.9388,60.2554 -17.7227,2.953 -35.4454,-0.5906 -40.1714,-13.5873 -5.31658,-14.1779 2.95418,-33.0819 31.9007,-40.7608 37.2161,-9.45196 63.2096,-14.7685 63.2096,-14.7685l0 8.86136zm267.014 -160.682c-31.3089,0 -64.3908,16.5415 -82.7041,35.4443 11.2249,-51.9846 36.6266,-79.1593 80.9323,-103.379 60.2554,-33.0819 76.2051,-25.9935 117.557,-60.2566l-39.5796 -56.7106c-33.6713,27.7653 -56.12,24.8111 -112.831,60.2554 -109.287,67.9355 -114.013,157.137 -114.013,238.068 0,102.199 49.6222,167.771 142.368,167.771 82.1135,0 135.28,-62.619 135.28,-144.731 0,-82.1135 -46.6692,-136.462 -127.01,-136.462zm-13.5873 209.713c-42.5326,0 -63.799,-30.7183 -63.799,-73.2509 0,-42.5338 21.2663,-75.0239 63.799,-75.0239 42.5338,0 63.8002,32.4901 63.8002,75.0239 0,42.5326 -21.2663,73.2509 -63.8002,73.2509zm330.225 -221.527c-30.1277,0 -56.1212,10.6332 -75.6157,28.3559l0 -24.2205 -78.5675 0 0 413.518 78.5675 0 0 -153.593c19.4945,18.3133 45.488,29.5371 75.6157,29.5371 82.1123,0 137.051,-64.9814 137.051,-147.095 0,-82.1123 -54.9388,-146.503 -137.051,-146.503zm-8.27076 221.527c-42.5338,0 -67.3449,-32.4901 -67.3449,-75.0239 0,-42.5326 24.8111,-75.0239 67.3449,-75.0239 42.5338,0 66.7532,32.4913 66.7532,75.0239 0,42.5338 -24.2193,75.0239 -66.7532,75.0239zm353.263 -217.392l-93.9278 154.774 0 -154.774 -78.5675 0 0 284.737 75.0239 0 93.9278 -154.774 0 154.774 78.5675 0 0 -284.737 -75.0239 0zm301.278 284.737l90.3831 0 -116.377 -160.681 114.013 -124.056 -99.835 0 -88.6113 96.2902 0 -96.2902 -78.5675 0 0 284.737 78.5675 0 0 -79.7499 23.6299 -25.9923 76.7969 105.742zm236.886 -288.872c-70.8885,0 -112.832,46.668 -118.148,83.8853l65.572 14.1779c4.72598,-21.8581 23.0393,-33.0819 47.2598,-33.6725 27.7641,-1.1812 46.0774,16.5403 41.942,33.6725 -3.5436,15.9497 -23.6287,15.9497 -71.4791,26.5829 -60.2554,12.9967 -102.789,34.8537 -102.789,96.8808 2.36358,43.1244 33.0819,72.0709 88.6113,72.0709 48.441,0 76.7969,-20.6757 87.4301,-31.3089l0 26.5829 77.9769 0 0 -177.813c0,-82.7029 -54.3482,-111.059 -116.375,-111.059zm38.3984 172.497c-2.36358,31.3089 -24.2205,55.5294 -54.9388,60.2554 -17.7227,2.953 -35.4454,-0.5906 -40.1714,-13.5873 -5.31658,-14.1779 2.95418,-33.0819 31.9007,-40.7608 37.2161,-9.45196 63.2096,-14.7685 63.2096,-14.7685l0 8.86136zm-2146.75 802.225l96.2902 0 -163.635 -229.798 154.774 -183.72 -102.788 0 -140.597 166.588 0 -166.588 -78.5675 0 0 413.518 78.5675 0 0 -125.237 36.036 -42.5338 119.92 167.771zm360.352 -284.737l-80.3405 0 -60.2566 176.631 -60.2554 -176.631 -80.9311 0 102.199 280.011c-21.8581,56.12 -44.3056,54.3482 -69.1167,50.2128l-12.4061 72.6615c96.882,13.5873 128.191,-43.715 159.5,-124.056 17.7227,-44.3056 101.608,-278.829 101.608,-278.829zm206.168 138.824l93.3372 -138.824 -89.2019 0 -52.5764 80.3405 -51.9846 -80.3405 -89.2019 0 93.3372 138.824 -98.0632 145.912 88.6113 0 57.3012 -87.4301 57.893 87.4301 88.6113 0 -98.0632 -145.912zm294.19 -138.824l0 104.561 -90.9748 0 0 -104.561 -78.5675 0 0 284.737 78.5675 0 0 -104.561 90.9748 0 0 104.561 78.5687 0 0 -284.737 -78.5687 0zm298.324 0l-93.9278 154.774 0 -154.774 -78.5675 0 0 284.737 75.0239 0 93.9278 -154.774 0 154.774 78.5675 0 0 -284.737 -75.0239 0zm534.03 140.596l-166.589 -269.377 -76.7957 0 0 413.518 78.5675 0 0 -269.377 165.999 269.377 77.3863 0 0 -413.518 -78.5675 0 0 269.377zm132.325 -12.4061l167.18 0 0 -64.9814 -167.18 0 0 64.9814zm82.7041 -90.3831c46.668,0 88.6113,-37.8067 88.6113,-85.0665 0,-47.2586 -41.9432,-85.6571 -88.6113,-85.6571 -47.2598,0 -89.2019,38.3984 -89.2019,85.6571 0,47.2598 41.942,85.0665 89.2019,85.0665zm0 -115.785c18.9039,0 30.7183,12.9967 30.7183,30.7183 0,17.7227 -11.8144,30.7183 -30.7183,30.7183 -19.4945,0 -30.7183,-12.9956 -30.7183,-30.7183 0,-17.7215 11.2238,-30.7183 30.7183,-30.7183zm206.168 -50.8034c-4.13538,43.715 -28.3559,90.3831 -70.2979,109.878l0 48.441c24.2205,-1.77298 57.8918,-15.3603 70.2979,-30.1277l0 285.327 73.8427 0 0 -413.518 -73.8427 0z"/>
   <path id="_106546248" class="fil1" d="M5122.39 1869.09l-643.481 -91.4024c-7.51361,-0.219703 -21.2722,-0.654385 -20.5163,30.6474l0 987.53c0.4335,4.95277 2.99789,6.39029 7.31281,4.94096l660.863 -570.244c2.06474,-1.44343 2.96481,-3.30382 2.31397,-5.71701l0 -349.229c-0.510278,-3.7255 -2.8774,-5.70992 -6.49188,-6.52613zm5.25988 -851.905l-653.162 -507.933c-10.1418,-5.02364 -14.8772,-0.878813 -16.095,9.22872l0 933.995c-0.877632,34.9493 5.10042,44.7084 37.0531,47.6035l629.556 -37.9094c2.7522,-0.08859 3.94166,-1.47178 3.88024,-3.88851l0 -438.4c0.0626036,-0.811484 -0.471299,-2.20058 -1.23199,-2.69668z"/>
   <g style="clip-path:url(#id0)">
    <g>
     <path id="_330221841" class="fil2" d="M4194.74 1074.59l1334.51 0c16.2132,0 29.5961,13.2637 29.7438,29.4768l19.4048 2139.53c0.14765,16.2132 -12.9956,29.4768 -29.2087,29.4768l-1334.51 0c-16.2132,0 -29.5973,-13.2637 -29.745,-29.4768l-19.4048 -2139.53c-0.14765,-16.2132 12.9967,-29.4768 29.2087,-29.4768z"/>
    </g>
   </g>
   <path class="fil3" d="M5122.39 1869.09l-643.481 -91.4024c-7.51361,-0.219703 -21.2722,-0.654385 -20.5163,30.6474l0 987.53c0.4335,4.95277 2.99789,6.39029 7.31281,4.94096l660.863 -570.244c2.06474,-1.44343 2.96481,-3.30382 2.31397,-5.71701l0 -349.229c-0.510278,-3.7255 -2.8774,-5.70992 -6.49188,-6.52613zm5.25988 -851.905l-653.162 -507.933c-10.1418,-5.02364 -14.8772,-0.878813 -16.095,9.22872l0 933.995c-0.877632,34.9493 5.10042,44.7084 37.0531,47.6035l629.556 -37.9094c2.7522,-0.08859 3.94166,-1.47178 3.88024,-3.88851l0 -438.4c0.0626036,-0.811484 -0.471299,-2.20058 -1.23199,-2.69668z"/>
   <path id="_106546200" class="fil4" d="M3358.78 1750.04l1021.96 20.9935c34.7604,-1.46587 33.7398,26.1896 33.5343,33.7209l1.16112 991.752c-0.517366,6.38911 -3.98537,7.44983 -8.96413,5.78906l-1051.81 -564.944c-3.66054,-2.01631 -5.2398,-5.57645 -5.31304,-10.2587l0 -466.562c-0.141744,-5.51266 2.30098,-9.44015 9.43306,-10.4902zm7.40612 -737.168l1035.14 -509.194c7.80419,-1.51075 12.516,1.22963 14.113,8.25304l0 952.691c-0.0519728,25.8576 -13.6937,39.8147 -43.2296,39.2938l-1016.31 37.7228c-4.53463,-0.513822 -6.67732,-3.32153 -6.55566,-8.29793l0 -495.659c-0.0673284,-12.3837 5.65677,-20.573 16.8392,-24.8099z"/>
   <g style="clip-path:url(#id1)">
    <g>
     <path id="_330232641" class="fil2" d="M4194.74 1074.59l1334.51 0c16.2132,0 29.5973,13.2637 29.7438,29.4768l19.4059 2139.53c0.146469,16.2132 -12.9967,29.4768 -29.2099,29.4768l-1334.51 0c-16.2132,0 -29.5973,-13.2637 -29.7438,-29.4768l-19.4059 -2139.53c-0.146469,-16.2132 12.9967,-29.4768 29.2099,-29.4768z"/>
     <path id="_33023336" class="fil2" d="M2654.63 -184.305l1334.51 0c16.2132,0 29.5973,13.2637 29.7438,29.4768l19.4059 2139.53c0.146469,16.2132 -12.9967,29.4768 -29.2099,29.4768l-1334.51 0c-16.2132,0 -29.5973,-13.2637 -29.7438,-29.4768l-19.4059 -2139.53c-0.146469,-16.2132 12.9967,-29.4768 29.2099,-29.4768z"/>
    </g>
   </g>
   <path class="fil3" d="M3358.78 1750.04l1021.96 20.9935c34.7604,-1.46587 33.7398,26.1896 33.5343,33.7209l1.16112 991.752c-0.517366,6.38911 -3.98537,7.44983 -8.96413,5.78906l-1051.81 -564.944c-3.66054,-2.01631 -5.2398,-5.57645 -5.31304,-10.2587l0 -466.562c-0.141744,-5.51266 2.30098,-9.44015 9.43306,-10.4902zm7.40612 -737.168l1035.14 -509.194c7.80419,-1.51075 12.516,1.22963 14.113,8.25304l0 952.691c-0.0519728,25.8576 -13.6937,39.8147 -43.2296,39.2938l-1016.31 37.7228c-4.53463,-0.513822 -6.67732,-3.32153 -6.55566,-8.29793l0 -495.659c-0.0673284,-12.3837 5.65677,-20.573 16.8392,-24.8099z"/>
  </g>
 </g>
</svg>
